# xmcd
#
# Track frame offsets:
# 150
# 16004
# 36355
# 56330
# 77410
# 92377
# 107051
# 124159
# 137549
# 151699
# 172681
# 193545
# 195227
# 208200
# 225299
# 241828
#
# Disc length: 3491 seconds
#
# Revision: 0
# Processed by: cddbd v1.5.2PL0 Copyright (c) Steve Scherf et al.
# Submitted via: Audion 3.0.2 (http://www.panic.com/audion/)
#
DISCID=ae0da110
DTITLE=Scissor Sisters - Scissor Sisters
DYEAR=1900
DGENRE=
TTITLE0=Laura
TTITLE1=Take Your Mama Out
TTITLE2=Comfortably Numb
TTITLE3=Mary
TTITLE4=Lovers in the Backseat
TTITLE5=Tits on the Radio
TTITLE6=Filthy Gorgeous
TTITLE7=Music is the Victim
TTITLE8=Better Luck Next Time
TTITLE9=Can't Come Quickly Enough
TTITLE10=Return to Oz
TTITLE11=Message From Miss Matronic
TTITLE12=Skins
TTITLE13=Get It Get It
TTITLE14=Available (For You)
TTITLE15=Laura (City Hi-Fi Vocal Mix)
EXTD=
EXTT0=
EXTT1=
EXTT2=
EXTT3=
EXTT4=
EXTT5=
EXTT6=
EXTT7=
EXTT8=
EXTT9=
EXTT10=
EXTT11=
EXTT12=
EXTT13=
EXTT14=
EXTT15=
PLAYORDER=
